<svg width="23" height="23" viewBox="0 0 23 23" fill="none" xmlns="http://www.w3.org/2000/svg">
<path d="M8.21429 0C5.0485 0 2.46429 2.58421 2.46429 5.75C2.46429 7.72964 3.47464 9.48914 5.00579 10.525C2.07575 11.7817 0 14.6871 0 18.0714H1.64286C1.64286 14.4325 4.57536 11.5 8.21429 11.5C9.34457 11.5 10.3944 11.7941 11.3193 12.2968C10.373 13.4659 9.85688 14.9245 9.85714 16.4286C9.85714 20.0478 12.8094 23 16.4286 23C20.0478 23 23 20.0478 23 16.4286C23 12.8094 20.0478 9.85714 16.4286 9.85714C15.0445 9.859 13.6965 10.2989 12.5777 11.1139C12.2146 10.8864 11.822 10.695 11.4228 10.5241C12.2046 9.99691 12.8451 9.28597 13.2882 8.45362C13.7313 7.62127 13.9634 6.69294 13.9643 5.75C13.9643 2.58421 11.3801 0 8.21429 0ZM8.21429 1.64286C10.4921 1.64286 12.3214 3.47218 12.3214 5.75C12.3214 8.02782 10.4921 9.85714 8.21429 9.85714C5.93646 9.85714 4.10714 8.02782 4.10714 5.75C4.10714 3.47218 5.93646 1.64286 8.21429 1.64286ZM16.4286 11.5C19.1606 11.5 21.3571 13.6965 21.3571 16.4286C21.3571 19.1606 19.1606 21.3571 16.4286 21.3571C13.6965 21.3571 11.5 19.1606 11.5 16.4286C11.5 13.6965 13.6965 11.5 16.4286 11.5ZM14.5557 13.3729L13.3729 14.5557L15.2482 16.4286L13.3753 18.3014L14.5557 19.4843L16.4286 17.609L18.3014 19.4818L19.4843 18.3014L17.609 16.4286L19.4818 14.5557L18.3014 13.3729L16.4286 15.2482L14.5557 13.3753V13.3729Z" fill="white"/>
</svg>
