<svg width="23" height="18" viewBox="0 0 23 18" fill="none" xmlns="http://www.w3.org/2000/svg">
<path fill-rule="evenodd" clip-rule="evenodd" d="M10.2541 0.537929C10.4776 0.63058 10.6685 0.787408 10.8029 0.988587C10.9372 1.18977 11.0089 1.42626 11.0088 1.66817V16.3466C11.0088 16.5885 10.937 16.8249 10.8026 17.026C10.6682 17.2271 10.4771 17.3839 10.2537 17.4764C10.0302 17.569 9.78428 17.5932 9.54704 17.546C9.3098 17.4988 9.09187 17.3824 8.9208 17.2114L4.3864 12.677H1.2232C0.898787 12.677 0.587662 12.5481 0.358267 12.3187C0.128872 12.0893 0 11.7782 0 11.4538V6.56097C0 6.23655 0.128872 5.92543 0.358267 5.69603C0.587662 5.46664 0.898787 5.33777 1.2232 5.33777H4.3864L8.9208 0.803364C9.09186 0.632198 9.30984 0.515616 9.54717 0.468367C9.7845 0.421119 10.0305 0.445327 10.2541 0.537929Z" fill="white"/>
<path fill-rule="evenodd" clip-rule="evenodd" d="M16.7053 0.358136C16.9347 0.128822 17.2457 0 17.5701 0C17.8944 0 18.2055 0.128822 18.4349 0.358136C19.5723 1.49284 20.4743 2.84106 21.0891 4.32535C21.7039 5.80965 22.0195 7.40079 22.0176 9.00739C22.0195 10.614 21.7039 12.2051 21.0891 13.6894C20.4743 15.1737 19.5723 16.5219 18.4349 17.6566C18.2042 17.8794 17.8952 18.0027 17.5745 18C17.2538 17.9972 16.947 17.8685 16.7202 17.6417C16.4934 17.4149 16.3648 17.1082 16.362 16.7874C16.3592 16.4667 16.4825 16.1577 16.7053 15.927C17.6155 15.0195 18.3373 13.9409 18.8292 12.7534C19.321 11.5658 19.5732 10.2928 19.5712 9.00739C19.5712 6.30411 18.4777 3.86016 16.7053 2.08774C16.476 1.85836 16.3472 1.54729 16.3472 1.22294C16.3472 0.89859 16.476 0.58752 16.7053 0.358136ZM13.2449 3.81735C13.3585 3.70362 13.4934 3.6134 13.6419 3.55184C13.7904 3.49028 13.9495 3.4586 14.1103 3.4586C14.271 3.4586 14.4302 3.49028 14.5787 3.55184C14.7272 3.6134 14.8621 3.70362 14.9757 3.81735C15.6581 4.49826 16.1992 5.30728 16.5681 6.19795C16.9369 7.08862 17.1261 8.04338 17.1248 9.00739C17.126 9.97139 16.9368 10.9261 16.568 11.8168C16.1992 12.7074 15.658 13.5165 14.9757 14.1974C14.7462 14.4269 14.4349 14.5559 14.1103 14.5559C13.7857 14.5559 13.4744 14.4269 13.2449 14.1974C13.0153 13.9679 12.8864 13.6566 12.8864 13.332C12.8864 13.0074 13.0153 12.6961 13.2449 12.4666C13.7001 12.013 14.0611 11.4739 14.3072 10.8802C14.5532 10.2865 14.6794 9.65003 14.6784 9.00739C14.6794 8.36474 14.5533 7.72824 14.3073 7.13455C14.0612 6.54087 13.7001 6.00172 13.2449 5.54818C13.1311 5.43457 13.0409 5.29967 12.9793 5.15117C12.9178 5.00268 12.8861 4.84351 12.8861 4.68276C12.8861 4.52201 12.9178 4.36284 12.9793 4.21435C13.0409 4.06585 13.1311 3.93095 13.2449 3.81735Z" fill="white"/>
</svg>
