<svg width="26" height="25" viewBox="0 0 26 25" fill="none" xmlns="http://www.w3.org/2000/svg">
<path d="M18.2141 10.9375V13.2813C18.2141 14.7317 17.6379 16.1227 16.6124 17.1482C15.5868 18.1738 14.1958 18.75 12.7454 18.75C11.295 18.75 9.90396 18.1738 8.87837 17.1482C7.85278 16.1227 7.27661 14.7317 7.27661 13.2813V10.9375H5.71411V13.2813C5.71493 15.0102 6.35275 16.6782 7.50569 17.9667C8.65863 19.2551 10.2459 20.0735 11.9641 20.2656V21.875H8.83911V23.4375H16.6516V21.875H13.5266V20.2656C15.2449 20.0735 16.8321 19.2551 17.985 17.9667C19.138 16.6782 19.7758 15.0102 19.7766 13.2813V10.9375H18.2141Z" fill="white"/>
<path d="M12.7454 17.1875C13.7814 17.1875 14.7749 16.7759 15.5075 16.0434C16.2401 15.3108 16.6516 14.3173 16.6516 13.2812V5.46875C16.6516 4.43275 16.2401 3.43918 15.5075 2.70661C14.7749 1.97405 13.7814 1.5625 12.7454 1.5625C11.7094 1.5625 10.7158 1.97405 9.98323 2.70661C9.25066 3.43918 8.83911 4.43275 8.83911 5.46875V13.2812C8.83911 14.3173 9.25066 15.3108 9.98323 16.0434C10.7158 16.7759 11.7094 17.1875 12.7454 17.1875ZM10.4016 5.46875C10.4016 4.84715 10.6485 4.25101 11.0881 3.81147C11.5276 3.37193 12.1238 3.125 12.7454 3.125C13.367 3.125 13.9631 3.37193 14.4026 3.81147C14.8422 4.25101 15.0891 4.84715 15.0891 5.46875V13.2812C15.0891 13.9029 14.8422 14.499 14.4026 14.9385C13.9631 15.3781 13.367 15.625 12.7454 15.625C12.1238 15.625 11.5276 15.3781 11.0881 14.9385C10.6485 14.499 10.4016 13.9029 10.4016 13.2812V5.46875Z" fill="white"/>
</svg>
